<svg id="Layer_1" data-name="Layer 1" xmlns="http://www.w3.org/2000/svg" xmlns:xlink="http://www.w3.org/1999/xlink" viewBox="0 0 11375.14 3214.82"><defs><style>.cls-1,.cls-2,.cls-3{fill-rule:evenodd;}.cls-1{fill:url(#linear-gradient);}.cls-2{fill:#fff;}.cls-3{fill:url(#linear-gradient-2);}</style><linearGradient id="linear-gradient" x1="83.86" y1="1138.13" x2="11459" y2="1138.13" gradientUnits="userSpaceOnUse"><stop offset="0" stop-color="#4f4029"/><stop offset="1" stop-color="#e0c98b"/></linearGradient><linearGradient id="linear-gradient-2" x1="202.45" y1="2362.08" x2="11095.2" y2="2362.08" gradientUnits="userSpaceOnUse"><stop offset="0.07" stop-color="#866c45"/><stop offset="0.5" stop-color="#e0c98b"/><stop offset="0.93" stop-color="#866c45"/></linearGradient></defs><title>logo-illustrator</title><path class="cls-1" d="M83.86,1324.72h8.89c7.63-14.46,41.84-23.86,57.32-32.61,26.71-15.1,59.51-28.82,89-41.51,18.08-7.8,39.51-8,56.33-15.81h14.82c19.38-8.11,48-8.47,68.2-16.81h26.68c11.13-4.61,34.45-7.84,48.43-7.9h29.64c10-4.14,30.83.92,44.48-4l3.95-4.94H578c9.41-3.46,31.31.28,41.51-4,34-14.11,93.9-6.73,129.46-19.77h24.71c33.21-10.61,79.73-11,110.69-24.7h17.79c14.61-5.27,37.62-10.61,52.37-16.8,11.1-4.66,19.51.46,30.64-4,77.51-30.73,160.31-47.82,238.18-78.07,68.39-26.57,140.39-59.27,204.57-90.92h10.87c19.26-8.71,39.64-24,59.3-32.62,56.86-24.88,109-50.59,161.09-79.06,15.58-8.51,31.07-11.23,46.45-19.76,78.12-43.35,159.14-90.32,238.18-132.43,117-62.32,243.39-114.77,366.65-169h9.88c8.57-3.89,21.9-12,30.64-15.81h9.88C2452,475.78,2553.32,443,2648.45,406.6c45.85-17.52,95.72-24.45,138.36-44.47h13.84c7.34-2.69,20.33-9.41,27.67-12.85h14.82c47.93-20.31,110.35-27,158.13-49.41h14.82c10.43-4.39,19.71-3.81,31.63-7.91,33.84-11.62,82.23-19.35,114.64-33.6h18.78c3.15-1.31,14.67-6.46,17.79-7.91h14.82c3.15-1.32,14.67-6.46,17.79-7.9h18.78c38.3-14.87,92.44-16.9,130.45-33.6h18.78c4-1.86,17.76-6.07,21.74-7.91h18.78c18.28-7.61,46.63-9.07,64.24-16.8h18.77c18.78-8.76,48.28-8.31,67.21-15.81H3612c21.67-7.26,51.83-8,73.13-16.8h22.73c30.35-12.59,74.16-8.1,104.76-20.76h26.68c5.68-2.35,21-5.56,26.69-7.9h26.68c8.75-3.37,18.48-.86,27.67-4l4-4.94H3955c7.79-3.22,22.85-4.68,30.64-7.9,17.07-7.06,45.77,2.77,63.25-4,29.79-11.46,76.46-4.7,105.75-16.8,10.57-4.37,26.83.54,36.56-4s32.08-.06,41.51-3.95h38.54c24.67-9.48,65.83-3.45,89.94-12.85,14.61-5.7,37.27,1.19,48.42-4h55.35c15.39-5.63,48.82,1.6,62.26-4,8.38-3.45,22.66-4,36.57-4h36.56c21.06-7,62.11,3.13,82-3.95,27.4-9.75,77-4.88,112.66-5,4-8.09,88.82-4.94,106.74-4.94h338c.64,3.59.4,3,2,4.94,30.8-.12,78.16-5.8,101.79,4h71.16l3.95,4.94c12.79,5.21,47.58-.94,62.26,4h46.45c5.15.55,3.85,2.93,6.92,4,15.15,5,37.16-.7,48.43,4,13,5.36,35.69-.09,45.46,4h38.54C5704.58,83.22,5768,74.05,5805,89.36c16.08,6.66,42.64-2.17,59.3,4,57.26,21.08,142.38,13.74,196.67,37.55h22.73c16.72,7.81,42,9.14,59.29,15.82h17.79c11.13,4.33,28.75,8.46,40.52,12.84h13.84c14.59,6.16,36.47,10.25,51.39,15.82h13.83c32.37,13.48,74.14,20.21,105.75,33.6H6400c12.3,4.64,31.45,10.71,43.48,15.81h13.84c78.11,32.71,170.78,48.93,246.08,83,15.85,7.17,30.33,5.5,46.45,11.85,40.77,16.09,86.48,33.32,126.5,49.42,8.56,3.44,13.26.36,21.74,3.95,133,56.32,272.91,106.84,402.23,165,10.34,4.65,20.32,3.23,30.64,7.9,43.17,19.54,91.17,42.78,134.41,62.26h9.88c5.63,2.29,13.14,9.59,18.78,11.86h9.88c100.34,45.37,207.7,89.65,307.36,136.39h9.88c5.57,2.26,13.27,9.54,18.78,11.86h9.88c30.93,13.06,66.49,30.35,96.85,45.46h9.88c5.71,2.31,13.38,9.39,18.78,11.86h9.88c2.8,1.53,7.3,8.36,10.87,9.88,84.22,35.66,169.26,65.88,251,102.78,8.25,3.72,14.52-.15,22.73,4,25.73,12.87,58.69,26,85,37.56,10.68,4.71,24.33,2.75,34.59,7.9,23,11.54,52.25,22.59,76.1,32.62,8.41,3.53,13.41.27,21.74,3.95,3,1.34,8.39,7.61,11.86,8.9,12.28,4.53,21.52,2.82,33.6,7.9,79,33.25,169.94,59.31,250,90.92,10.12,4,17.56-.54,26.68,4,31.11,15.31,72.4,23.82,104.76,36.56H8928c7.26,3,19.95,9.81,27.67,12.85h13.83c70.23,28.59,154.69,40.78,225.33,70.17h13.84c14.78,6,36.66,9.62,51.39,15.81h13.84c41.09,16.16,93.44,23.48,135.39,37.56h17.79c9.19,3.84,25.4,8,34.59,11.86h13.84c16,6,40.33,10.14,56.33,16.8h18.77c15.61,6.51,41,10.79,56.34,16.8,10.86,4.27,28.36-.81,38.54,4,35.45,16.58,89,13.51,125.51,28.66h18.78c13.28,6.2,37.06,5.71,50.4,11.86h22.73c24.93,10.24,63.29,10.11,89,20.75h22.73c12.23,5.09,31.74,8.85,44.47,12.85h21.74c4.07,1.69,18.62,6.32,22.73,7.91h17.79c37.14,14.41,84.7,13.33,121.56,28.66h18.78c16.67,7,40.16,10.83,56.33,16.8,12.58,4.64,22.92-1.56,34.59,4,24.8,11.71,58.88,14.15,84,24.71h14.82c7.87,3.74,21.91,8.59,30.64,11.86h13.83c24.58,12.21,59.16,19.47,85,29.65h13.84c7.73,3.28,21.06,10.22,28.66,12.84h12.85c11.38,4.66,27.56,10.54,38.54,15.82h10.87c19,8.33,44.27,15.57,63.25,24.7,8.34,4,14.49.12,22.73,4,57.74,26.88,123.2,46.61,178.88,74.12h10.87c16.73,7.83,35.68,23.07,53.37,29.65,15.72,5.84,27.65,8,41.51,15.81,4.66,2.63,9.41,10.19,14.82,12.85,13.25,6.51,25.43,8.79,38.55,15.81,4.87,2.61,10.26,10.43,14.82,12.85,7.64,4.06,15.37,3.13,22.73,7.9,8,5.18,18.08,16.2,26.68,20.76,27.56,14.61,49.44,30.19,76.1,45.46l9.89,11.86c16.38,9.49,27.27,20.37,43.48,29.65q10.88,11.85,21.74,23.72c31.38,23.89,62.12,51,82,86,7.61,13.38,24.91,24.75,32.61,38.54,14.66,26.24,30.27,55.06,41.51,83v13.83c2.53,5.88,9.2,16.15,11.86,22.73v13.84l5.93,2v64.24l-4-1c.62-98.16-54.73-158.38-102.78-209.51-83.35-88.68-196-156.66-314.28-209.52-9-4-21.76-3.72-30.64-7.9-11.47-5.41-27.39-15.31-39.53-20.76-8.4-3.77-14.31,0-22.73-4-69.69-32.53-154.39-52.88-230.27-79.06-10.67-3.69-19.34.94-29.65-4-28.09-13.34-67.34-17.25-96.85-28.66-12.63-4.88-22.52,1.12-34.59-3.95-47.2-19.83-109.75-18.46-159.11-36.57-12.74-4.67-30.3,1.12-42.5-4-8-3.32-15.44-1-23.72-3.95l-3.95-4.94h-21.74c-47.3-17.41-112.25-10.66-159.12-28.66h-26.68c-7.79-3.23-22.84-4.69-30.64-7.91h-26.68c-8.87-3.68-25.1-.66-32.61-4l-4-5h-29.64c-7.94-3.14-23.53-.34-32.62-4-36.47-14.46-93.92-8.14-131.44-20.75h-29.65c-7.79-3.23-22.84-4.69-30.63-7.91H9738.4c-15.94-6.6-43.36-5.27-59.3-11.86h-26.68c-23.59-9.65-61.18-7-85-16.8h-22.74c-14.88-6.18-41.67-6.86-56.33-12.85h-21.74c-12.54-5-34.65-6.55-47.44-11.86h-18.77c-4.87-2.27-20.83-5.66-25.7-7.9h-17.79c-38.4-13.55-90.56-15.38-127.49-29.65h-18.77c-10.15-4.74-28.54-7.69-38.55-11.86h-17.79c-75.85-28.12-167.76-33.18-242.13-62.26h-13.83c-14.79-6-36.67-9.62-51.39-15.81h-13.84c-31.44-13.15-74.7-22.63-106.73-33.61h-13.84c-2.49-1.18-11.31-6.83-13.84-7.9H8683.9c-24.85-11.82-58.71-18-84-28.66h-13.84c-93.46-37-200.48-58.15-290.56-98.83h-9.88c-11.52-5-28.36-12-40.52-16.8h-9.88c-119.92-54.14-253.79-90.69-372.58-144.29-14.72-6.64-27.64-4.59-42.5-10.87-223.72-94.66-455.19-182.52-679-276.72-14.58-6.14-28.29-5.46-42.5-11.86-64.94-29.27-138.64-54.45-204.57-83-18.29-7.92-36-8-54.36-15.81-91-38.54-194.66-65.09-287.59-103.77h-13.83c-15.46-6.3-35.75-13.89-51.39-19.76h-13.84c-80.32-33.56-174.69-48.48-258.93-79.07h-13.84c-31.46-14.85-76.25-15.17-108.71-28.66h-18.77c-4.12-1.92-18.45-6.33-22.74-7.9h-17.78c-55.55-23.11-135.28-16.53-192.72-37.56h-25.7c-37.73-13.85-98.25-5-134.4-20.75-15.13-6.61-61.83,2.66-76.1-4-9.11-4.22-28,.86-40.52-3.95-8.31-3.19-41.85-7.63-51.39-7.91H5469l-4.94-4.94h-54.35c-6.87-3.17-17.47-3.95-29.65-3.95h-39.53l-3-3.95h-80c-17.62-8.14-54.65-4-79.06-4-45,0-86.81-3.95-135.4-3.95H4831.57c-31.07,0-75.63-4.87-99.82,3.95h-74.12c-17.37,0-37.85-.26-49.41,4h-91.91l-2,3.95c-18.51,7.63-58.24-5.19-78.07,3.95h-25.7c-15,0-31.17.27-40.52,4h-54.35c-27.84,9.91-74.72,2.59-102.78,12.84-13.51,4.94-34.55-.14-44.48,4-13,5.36-35.69-.08-45.46,3.95-12.06,5-31.66-.13-40.52,4h-38.54c-30.68,10.95-80.79,4.46-110.69,16.8-9.83,4.07-27.6.25-36.57,4H3866c-7,2.68-23.85,4.78-30.64,7.9h-29.65c-34.69,11.06-85.28,8.2-119.58,20.76-15.77,5.77-38.9-2.11-54.36,4-21.34,8.37-55.32,7.8-77.08,16.8H3532c-22,9.11-54.8,7-76.1,16.8h-22.73c-12.79,5.31-35,6.7-47.44,11.86H3364c-45.73,15.32-107.37,16-152.2,33.6H3194c-23.46,9.78-56.21,10.29-80.06,19.77h-17.78C3048.34,515.24,2984.89,517,2937,537.06c-12.89,5.41-32.86,2.94-46.45,7.9-19,6.94-45.82,12.19-64.24,20.76-10.74,5-19.78-.4-30.63,3.95-21.41,8.59-51.11,16.42-73.14,24.71h-12.84c-79.08,27.45-167.92,46.51-243.12,79.06-19.66,8.51-38.6,7.48-58.31,15.81-75.54,32-159.48,57.65-233.24,90.92h-9.88c-12,5.09-27.63,15.43-39.53,20.76h-10.87c-44.24,22.15-90.16,43.37-138.36,61.27-11.51,4.28-24.89,14.8-35.58,20.76-12.26,6.84-22.15,6.75-35.58,12.84-19.6,8.91-40.73,22.17-59.29,32.62-9.19,5.17-16.14,3.41-26.69,7.9-13.85,5.9-29.51,18.41-43.48,24.71h-9.88c-8.67,3.69-19,12.89-27.68,16.8h-9.88c-26.78,12.14-58.24,28.92-85,41.51h-9.88c-8.59,3.89-22.09,11.95-30.64,15.81H1593c-47.55,21-103.25,40.65-151.21,62.26-14.79,6.67-31.58,5.26-46.45,11.86-35.19,15.63-78.24,26-113.65,41.51-9.43,4.13-16.46-.08-26.69,4-31.73,12.54-73.91,19.49-105.74,33.61h-13.84c-14.91,5.58-36.76,9.73-51.39,15.81h-17.79c-11.92,4-29.37,8.55-40.52,12.85H1003c-26.93,12.52-68.81,9.33-96.85,20.75H879.43c-19.72,9.14-55,2.58-75.11,11.86-12.2,5.62-37.29-1.64-49.42,4H651.13c-9.8,0-14.84,1.68-19.76,4H498c-22.64,0-48.35-9.15-68.19,0h-84l-3.95,4.94H307.21c-28.52,11.82-66.83,9.37-96.85,19.76-23.25,8-52.55,20.18-74.12,29.65h-9.89c-12.5,5.64-27.87,15.89-42.49,19.77Z" transform="translate(-83.86 -38.36)"/><path class="cls-2" d="M4973.88,1469c311.39-3.77,496.12,74.08,666.11,209.51,34.43,27.44,70.59,60.51,95.86,96.86l-257,238.17-4.94-4c-13.25-27.37-61.44-63.24-86-82-108.08-82.74-288.72-152.21-484.25-102.78S4583.86,1990,4520.26,2171.68c-12.06,34.44-18.22,73.21-25.69,113.65l-3,52.38-1,51.39c9,53.48,8.83,101.91,22.73,147.25,50.58,165,154.23,276.26,307.36,339,62.12,25.44,133.46,40.5,221.38,40.52l62.26-2c49.17-8.61,94.33-14.62,135.39-30.64,66.64-26,119.83-61.93,171-102.78q34.08-34.59,68.19-69.18l11.86,11.86,243.11,224.34H4294.93c-17.81-31.62-51.46-63.1-72.14-95.86-42.84-67.85-77.73-142.41-103.77-227.31-14.78-48.17-20.11-100-29.65-154.17-18.53-105.19.14-263,24.71-344.91,84.22-281,249.82-470.45,505-579.14,68.61-29.21,143.19-47.65,225.33-64.23l94.87-10.88Z" transform="translate(-83.86 -38.36)"/><path class="cls-3" d="M202.45,1471h342L1208.52,2574.9l2-1L1864.74,1471h338q2.46,786.6,4.94,1573.35h8359.89c59,0,129.09,5.68,172-11.86h14.82c26.23-16,55.83-29.66,74.13-53.36v-7.91c4.35-8.45,10.77-20.8,15.81-29.65v-17.79c24.65-72.35-29.29-119.84-65.23-146.26-4.77-3.51-10.59-1.19-15.81-4-18.59-9.83-43.3-17.63-62.26-28.66-8.88-5.16-19.72.25-28.66-4.94-10.47-6.07-27.1-9.78-37.56-15.81-6.48-3.74-21.78-1-28.66-4.94-15-8.54-33-8.75-51.39-15.82-9.78-3.76-23.07-11.6-31.62-16.8h-10.88c-5.16-2.47-12.92-8.91-17.78-11.86l-11.86-1c-7.24-4.3-15.16-7-23.72-11.86-47-26.57-89.39-69.08-116.62-115.63v-7.91a327.18,327.18,0,0,1-20.75-37.55v-13.84c-11.68-19.75-29.19-145-11.86-174.93v-20.75h4c3.82-6.17.53-24.18,4-31.62,8.49-18.46,15.27-38.72,24.71-57.33,33.18-65.4,94.93-109.39,157.14-146.26,26.19-15.53,62.53-19.5,90.92-32.61,10.94-5.06,39.09,1.51,48.42-4v-4l129.47-1c9,.29,37.09,4.94,43.48,8.9h24.71c8.53,5,24.7,7.42,33.6,11.85l15.82,1c16,8.57,42.55,11.7,57.32,20.76,24.89,15.27,52.16,28.19,75.11,44.47,15.76,11.19,55,27.91,53.36,49.41-9.1,4.37-18.24,35.69-24.7,45.46-23.22,35.14-35.52,79-70.17,102.79l-50.4,1c-16.75-5.43-35.18-19.79-48.43-29.64H10870c-13.11-7.54-29.39-16.1-41.5-24.71-3.72-2.64-18.61-1.52-23.72-4-56.32-26.79-162.26-26.86-210.51,8.89-13,9.66-27.88,27.47-37.55,40.52-3.94,5.32-7.63,25.33-11.86,32.61-8.54,14.7,6.22,79,11.86,87,4.66,6.57,15.21,10.78,20.75,16.8,21.78,23.7,53.73,35.16,82,52.38h9.88c3.21,1.17,11.85,7,14.83,8.9h10.87c7.26,3.23,19.59,8.22,26.68,11.86h10.87c43.48,20.45,93.64,31.58,139.35,49.41,69.68,27.18,144.73,78.69,178.88,141.32,11.59,21.27,18.25,44.16,28.66,66.22,4.42,9.38.37,26.57,4.94,35.58,13.66,26.91,15,126.17,0,153.18l-1,19.77c-10.88,18.32-13.28,53.83-24.7,70.17-9.65,13.8-15.6,29.55-24.71,44.47-15,24.54-37.36,43.5-57.32,63.25-7.19,7.11-12.82,17.52-20.76,23.72-28.49,22.27-64.3,33.61-94.87,54.35-6.08,4.13-27.16,4.47-32.61,7.91-43.58,27.51-122.83,22.73-192.72,22.73H1875.62l2-3h-57.32q-1.49-532.14-3-1064.39v2l-520.83,874.63H1158.12c-11.83,0-42.2,4.31-49.41-2q-258.91-425.4-517.86-850.91h-1V3249.9H202.45Z" transform="translate(-83.86 -38.36)"/><path class="cls-2" d="M3399.55,1484.82H3028.94L2377.66,2947.48v1h377.53l81-193.7h749.12l79.06,192.71,389.38,1ZM2956.8,2470.14l255-615.7q127.49,307.82,255,615.7Z" transform="translate(-83.86 -38.36)"/><path class="cls-2" d="M7170.84,2134.12h759v186.79H7402.1v216.43h466.47v181.85H7402.1v229.28H7170.84Z" transform="translate(-83.86 -38.36)"/><path class="cls-2" d="M8189.76,2134.12h136.38c17.3,0,45.89-4,59.3,2l495.13,604.83V2134.12h230.27v814.35H8763l-342.93-418v418H8189.76Z" transform="translate(-83.86 -38.36)"/><path class="cls-2" d="M9290.71,2134.12h875.62v189.75h-321.2v624.6H9611.9v-624.6H9290.71Z" transform="translate(-83.86 -38.36)"/><path class="cls-2" d="M6802.21,2222.08c-53.35-40.17-117.22-63.16-194.69-80-58.54-12.77-133.59-7.91-202.6-7.91H6060v814.35h233.23v-89.94h212.48l60.29,88c17,7.64,53.78,2,75.11,2H6818l-92.9-133.42c83-39.25,146.35-93.39,181.85-179.87C6974.14,2471.53,6900.69,2296.23,6802.21,2222.08Zm-121.56,348.86c-51,122.34-216.3,103-387.41,101.8V2323.87c205.67-.47,372.32-27.11,401.25,156.15C6700,2514.62,6689.76,2549.08,6680.65,2570.94Z" transform="translate(-83.86 -38.36)"/></svg>