<?xml version="1.0" encoding="utf-8"?>
<!-- Generator: Adobe Illustrator 23.0.1, SVG Export Plug-In . SVG Version: 6.00 Build 0)  -->
<svg version="1.1" id="Warstwa_1" xmlns="http://www.w3.org/2000/svg" xmlns:xlink="http://www.w3.org/1999/xlink" x="0px" y="0px"
	 viewBox="0 0 1000 1000" style="enable-background:new 0 0 1000 1000;" xml:space="preserve">
<style type="text/css">
	.st0{fill:#FFFFFF;}
	.st1{fill:url(#SVGID_1_);}
	.st2{fill:url(#SVGID_2_);}
</style>
<g>
	<g>
		<path class="st0" d="M287.4,486.6l-40.3,100.1h-18.8l-40.3-100.1h16.7c1.8,0,3.3,0.4,4.4,1.3c1.1,0.9,2,1.9,2.5,3.3l21.7,57.7
			c0.8,2.2,1.6,4.5,2.4,7.1c0.8,2.6,1.6,5.2,2.2,8c0.6-2.8,1.3-5.5,2-8c0.7-2.6,1.5-4.9,2.3-7.1l21.5-57.7c0.5-1.1,1.3-2.2,2.4-3.1
			c1.2-0.9,2.6-1.4,4.4-1.4H287.4z"/>
		<g>
			<path class="st0" d="M482.3,486.6c-0.9,0-1.7,0-2.4,0.1c-0.7,0-1.3,0.2-1.8,0.4c-0.5,0.2-1,0.5-1.5,1c-0.5,0.4-0.9,1-1.3,1.8
				l-27.8,53.2c-0.9,1.6-1.7,3.3-2.5,5c-0.8,1.8-1.5,3.5-2.2,5.4c-0.7-1.8-1.4-3.5-2.2-5.2s-1.6-3.4-2.5-5l-28-53.4
				c-0.4-0.8-0.8-1.4-1.3-1.8c-0.4-0.4-0.9-0.8-1.5-1c-0.5-0.2-1.1-0.3-1.8-0.4c-0.7,0-1.5-0.1-2.3-0.1h-15.7v82.6h18.3v-43.9
				c0-1.3,0-2.7-0.1-4.2c-0.1-1.5-0.2-3-0.3-4.6l27.9,52.8h19.2l27.7-52.6c-0.2,1.5-0.3,3-0.4,4.5c-0.1,1.5-0.1,2.8-0.1,4.1v43.9
				H498v-82.6H482.3z"/>
			<path class="st0" d="M563.8,528.9c-1-2.5-2.7-4.6-4.9-6.5c-2.2-1.8-5.1-3.2-8.5-4.2c-3.5-1-7.7-1.5-12.6-1.5h-22v52.5h14.5V560
				h4.9c1.3,0,2.3,0.2,2.9,0.6c0.7,0.4,1.3,1,1.8,1.8l4.2,6.8h16.2l-5-7.7c-0.7-1-1.4-1.8-2.2-2.6c-0.8-0.7-1.7-1.3-2.6-1.9
				c2.4-0.8,4.4-1.9,6.3-3.2c1.8-1.3,3.4-2.8,4.6-4.5c1.3-1.7,2.2-3.6,2.9-5.7c0.7-2.1,1-4.3,1-6.6
				C565.3,534.1,564.8,531.3,563.8,528.9z M550.4,542.8c-0.5,1.4-1.3,2.7-2.4,3.7c-1.1,1-2.5,1.9-4.2,2.5c-1.7,0.6-3.7,0.9-6.1,0.9
				h-7.4v-22.2h7.5c4.5,0,7.9,0.9,10.1,2.8c2.2,1.8,3.3,4.4,3.3,7.7C551.2,539.8,550.9,541.4,550.4,542.8z"/>
			<path class="st0" d="M623.1,528v-11.3h-44.6v52.5h14.6V557h23.4v-11h-23.4v-18H623.1z"/>
			<path class="st0" d="M681.2,516.7v40.1c0,1,0,2.1,0.1,3.3c0.1,1.1,0.2,2.3,0.3,3.5l-35.1-44.6c-0.4-0.5-0.8-0.9-1.1-1.2
				c-0.3-0.3-0.7-0.5-1-0.7c-0.4-0.2-0.8-0.3-1.2-0.3c-0.4,0-1-0.1-1.6-0.1h-7.6v52.5h12.8v-23c0-0.9,0-2-0.1-3
				c0-1.1-0.1-2.2-0.2-3.3l23.1,29.4H694v-52.5H681.2z"/>
			<path class="st0" d="M702.8,516.7v11.7h20.5v40.9h14.5v-40.9h20.5v-11.7H702.8z"/>
		</g>
		<radialGradient id="SVGID_1_" cx="264.9767" cy="383.7281" r="591.1549" gradientUnits="userSpaceOnUse">
			<stop  offset="0.1462" style="stop-color:#6B5639"/>
			<stop  offset="0.352" style="stop-color:#BD985E"/>
			<stop  offset="0.4549" style="stop-color:#DABF86"/>
			<stop  offset="0.561" style="stop-color:#E7D491"/>
			<stop  offset="0.6735" style="stop-color:#C6A76D"/>
			<stop  offset="0.7844" style="stop-color:#BD985E"/>
			<stop  offset="1" style="stop-color:#6B5639"/>
		</radialGradient>
		<path class="st1" d="M808.2,556.3c-0.9-2-2.1-3.8-3.6-5.2c-1.5-1.4-3.2-2.6-5.1-3.5c-1.9-0.9-3.8-1.7-5.8-2.4
			c-2-0.7-3.9-1.3-5.8-1.9s-3.6-1.2-5.1-2c-1.5-0.7-2.7-1.6-3.6-2.6c-0.9-1-1.4-2.3-1.4-3.8c0-2.4,0.8-4.4,2.5-5.9s4.2-2.2,7.5-2.2
			c1.9,0,3.6,0.2,5,0.7c1.4,0.5,2.7,1,3.8,1.6c1.1,0.6,2.1,1.1,2.9,1.6c0.8,0.5,1.6,0.7,2.3,0.7c0.7,0,1.3-0.2,1.8-0.5
			c0.5-0.3,0.9-0.9,1.4-1.6l3.6-6.8c-2.5-2.3-5.5-4.1-9.1-5.4c-3.6-1.3-7.5-2-11.7-2c-3.8,0-7.1,0.6-10,1.7
			c-2.9,1.2-5.4,2.7-7.4,4.6c-2,1.9-3.5,4.1-4.5,6.5c-1,2.4-1.5,5-1.5,7.6c0,3.3,0.5,6,1.4,8.2c0.9,2.2,2.1,4,3.6,5.5
			c1.5,1.5,3.2,2.7,5.1,3.6c1.9,0.9,3.8,1.7,5.8,2.3c2,0.6,3.9,1.2,5.8,1.8c1.9,0.5,3.6,1.2,5.1,1.9c1.5,0.7,2.7,1.7,3.6,2.8
			c0.9,1.1,1.4,2.5,1.4,4.3c0,3.1-0.9,5.4-2.8,6.9c-1.8,1.5-4.5,2.3-7.8,2.3H367.1l-10.9-11.4c3.2-4.7,5.6-9.9,7.4-15.6
			c1.8-5.7,2.7-11.7,2.7-18h-11.9c-1.1,0-2.1,0.3-2.7,1c-0.7,0.7-1.1,1.6-1.2,2.8c-0.3,3.3-0.8,6.4-1.7,9.6c-0.8,3.1-2,6.1-3.4,8.9
			l-25.7-26.9c-1.4-1.5-2.6-2.9-3.5-4.1c-1-1.3-1.7-2.5-2.3-3.8c-0.6-1.2-1-2.4-1.2-3.6c-0.3-1.2-0.4-2.4-0.4-3.7
			c0-1.6,0.2-3,0.7-4.4c0.5-1.4,1.2-2.6,2.1-3.7c0.9-1.1,2.1-1.9,3.5-2.5c1.4-0.6,2.9-0.9,4.7-0.9c2.8,0,5,0.8,6.7,2.3
			c1.6,1.5,2.9,3.5,3.8,5.9c1,2.3,2.6,3.2,4.9,2.8l12.1-2.5c-0.3-2.9-1.1-5.8-2.4-8.5c-1.3-2.7-3.1-5.1-5.4-7.2
			c-2.3-2.1-5.1-3.8-8.4-5.1c-3.3-1.3-7.1-1.9-11.3-1.9c-4.6,0-8.6,0.7-12.2,2.1c-3.6,1.4-6.6,3.3-9,5.6c-2.4,2.4-4.3,5.1-5.6,8.3
			c-1.3,3.2-1.9,6.5-1.9,10c0,3.2,0.5,6.4,1.6,9.6c1,3.2,2.7,6.6,5.1,10c-2.9,1.4-5.6,3-8,5c-2.4,1.9-4.5,4.1-6.3,6.4
			c-1.8,2.3-3.1,4.9-4.1,7.7s-1.4,5.7-1.4,8.8c0,4.5,0.9,8.5,2.7,12c1.8,3.6,4.2,6.6,7.1,9.1c2.9,2.5,6.3,4.4,10.1,5.8
			c3.8,1.4,7.6,2,11.5,2c6.1,0,11.8-0.9,17.1-2.8c5.3-1.8,10.2-4.4,14.6-7.8l6.8,7.1c0.6,0.7,1.3,1.3,1.9,1.7
			c0.6,0.5,1.2,0.8,1.9,1.1c0.6,0.3,1.3,0.5,2.1,0.6c0.8,0.1,1.6,0.1,2.6,0.1h18.7l0,0h407.2v0c3.7-0.1,7-0.6,9.9-1.8
			c3.1-1.2,5.7-2.8,7.8-4.9c2.1-2.1,3.7-4.5,4.8-7.3c1.1-2.8,1.7-5.8,1.7-9C809.6,560.9,809.2,558.4,808.2,556.3z M326.1,570.3
			c-3.1,1-6.4,1.6-10,1.6c-2.2,0-4.2-0.4-6.1-1.1c-1.9-0.7-3.5-1.8-4.9-3.1c-1.4-1.4-2.5-3-3.2-4.9c-0.8-1.9-1.2-4.1-1.2-6.4
			c0-3.1,0.7-6,2.1-8.8c1.4-2.8,3.7-5.3,6.8-7.6l24.8,25.9C332,567.8,329.2,569.2,326.1,570.3z"/>
	</g>
	<radialGradient id="SVGID_2_" cx="227.0824" cy="179.7076" r="1358.229" gradientUnits="userSpaceOnUse">
		<stop  offset="0.1462" style="stop-color:#6B5639"/>
		<stop  offset="0.352" style="stop-color:#BD985E"/>
		<stop  offset="0.4549" style="stop-color:#DABF86"/>
		<stop  offset="0.561" style="stop-color:#E7D491"/>
		<stop  offset="0.6735" style="stop-color:#C6A76D"/>
		<stop  offset="0.7844" style="stop-color:#BD985E"/>
		<stop  offset="1" style="stop-color:#6B5639"/>
	</radialGradient>
	<path class="st2" d="M831.1,527.9c0.1-1.8-0.3-3.6-1-5.3c-0.7-1.7-1.6-3.2-2.7-4.6c-2.2-2.8-4.9-5.3-7.8-7.3
		c-5.8-4.2-12.4-7.2-19.2-9.7c-13.5-4.9-27.7-7.9-42-10.1c-3.6-0.5-7.1-1.1-10.7-1.5l-10.8-1.4c-7.3-0.9-14.6-2-21.9-3.2
		c-7.3-1.3-14.5-2.7-21.7-4.4c-7.2-1.7-14.4-3.5-21.5-5.5c-14.2-4-28.2-8.8-42-14.1c-13.8-5.2-27.3-10.8-40.8-16.2
		c-13.5-5.4-26.9-10.7-40.6-15.2c-6.8-2.2-13.7-4.3-20.5-6.2c-6.8-1.8-13.7-3.1-20.7-4.3c-7-1.2-14.1-1.9-21.2-2.6
		c-7.1-0.6-14.3-1-21.4-1.2c-14.3-0.5-28.7-0.1-43.1,0.7c-14.4,0.9-28.7,2.4-43,4.5c-3.6,0.5-7.1,1.1-10.7,1.7
		c-3.5,0.6-7.1,1.2-10.6,1.9l-5.3,1l-5.3,1.1c-3.5,0.7-7,1.6-10.5,2.4c-14,3.4-27.8,7.6-41.2,12.7c-6.7,2.5-13.3,5.4-19.8,8.5
		c-6.6,3.2-13.4,6.3-20.3,9c-6.9,2.7-13.9,5.2-21.1,7.2c-7.2,2-14.5,3.5-21.9,4.3c-3.7,0.4-7.4,0.6-11.1,0.6c-3.7,0.1-7.4,0-11,0
		c-3.6,0-7.2,0.2-10.8,0.9c-3.5,0.7-7,1.9-10.3,3.5c3.1-2,6.4-3.6,10-4.7c3.5-1.1,7.3-1.7,10.9-2.1c3.7-0.4,7.3-0.6,10.9-1
		c3.6-0.4,7.2-0.9,10.7-1.5c14.1-2.6,27.6-7.8,40.6-14.1c6.5-3.1,12.9-6.4,19.2-9.9c6.5-3.5,13.2-7,20-9.9c6.8-3,13.7-5.8,20.7-8.2
		c7-2.5,14.1-4.7,21.2-6.8c28.5-8.1,57.9-13,87.4-15.5c29.5-2.2,59.4-2.2,89.1,2.5c7.4,1.2,14.8,2.7,22.2,4.7
		c7.2,2,14.4,4.1,21.4,6.5c14.1,4.8,27.8,10.3,41.3,16.1c13.5,5.7,26.8,11.6,40.2,17.1c6.7,2.8,13.4,5.4,20.2,7.9
		c6.8,2.6,13.6,4.9,20.4,7.2c6.9,2.2,13.8,4.3,20.7,6.3c6.9,2,14,3.6,21,5.3c7.1,1.6,14.1,3.1,21.3,4.3l10.8,2
		c1.8,0.3,3.6,0.7,5.4,1.1c1.8,0.4,3.6,0.7,5.4,1.1c7.2,1.6,14.4,3.5,21.4,5.7c7.1,2.2,14.1,4.7,20.8,7.8c6.7,3.2,13.3,6.8,19,11.7
		c2.8,2.5,5.4,5.3,7.3,8.4c1,1.6,1.8,3.3,2.3,5.1C831.2,524.2,831.5,526.1,831.1,527.9z"/>
</g>
</svg>
